<?xml version="1.0" encoding="utf-8"?>
<!-- Generator: Adobe Illustrator 18.1.1, SVG Export Plug-In . SVG Version: 6.00 Build 0)  -->
<!DOCTYPE svg PUBLIC "-//W3C//DTD SVG 1.1//EN" "http://www.w3.org/Graphics/SVG/1.1/DTD/svg11.dtd">
<svg version="1.1" id="Layer_1" xmlns="http://www.w3.org/2000/svg" xmlns:xlink="http://www.w3.org/1999/xlink" x="0px" y="0px"
	 viewBox="0 0 65 140" enable-background="new 0 0 65 140" xml:space="preserve">
<g>
	<polygon fill="#FFFFFF" points="30.1,0 0.3,8.6 0.3,62.2 16,62.2 16,78.9 19.7,81.5 15.5,87.5 18.4,89.5 16,93 16,97.4 18.4,99 
		14.7,104.3 20.5,108.3 15.6,115.2 19.6,118 15.2,124.4 36.2,140 45.7,127.2 48.9,127.2 49,62.2 64.6,62.3 64.7,9.3 	"/>
	<polygon fill="#006838" points="30.1,19.4 4.6,26.5 4.6,12.5 30.1,5.1 60.5,13.2 60.5,27.3 	"/>
	<path fill="#006838" d="M25.8,37.6l0-1.3c0-1.7-0.8-2.2-2.1-2.2v0c1.5-0.2,2.1-1.2,2.1-2.7c0-2.5-1.6-2.8-4.2-2.8l-2.8,0l0,9.1
		l0,2.8l2.8,0l0-2.8l0-2.6H22c0.5,0,1,0.4,1,1.3l0,1.3l0,1.2c0,0.5,0.1,1.2,0.4,1.7l2.8,0c-0.3-0.5-0.4-1.2-0.4-1.7L25.8,37.6z
		 M21.5,33.2l0-3.1c1.3,0,1.5,0.4,1.5,1.5C23,32.8,22.8,33.2,21.5,33.2"/>
	<path fill="#006838" d="M14.4,28.2c-1.8,0-3.5,0.7-3.5,3.5l0,5.4c0,0.1,0,0.3,0,0.4l2.8,0l0-6.5c0-0.5,0.2-0.9,0.7-0.9
		c0.6,0,0.7,0.5,0.7,0.9l0,6.5v0.2c0,0.5-0.2,0.9-0.7,0.9c-0.6,0-0.7-0.5-0.7-0.9v-0.2l-2.8,0c0.2,2.4,1.7,3.1,3.5,3.1
		c1.7,0,3.3-0.7,3.5-3.1c0-0.1,0-0.3,0-0.4l0-5.4C18,29,16.3,28.2,14.4,28.2"/>
	<path fill="#006838" d="M56.2,28.5l-2.9,0l0,9.1l0,2.8l2.9,0c3.1,0,4-1,4.1-2.8l-2.8,0c-0.1,0.8-0.3,1.1-1.5,1.1l0-1.1l0-7.4
		c1.4,0,1.5,0.4,1.5,1.9l0,4.9c0,0.2,0,0.4,0,0.5l2.8,0c0-0.2,0-0.5,0-0.8l0-4.3C60.3,29,59.3,28.5,56.2,28.5"/>
	<polygon fill="#006838" points="4.6,37.5 4.6,40.4 7.3,40.4 7.3,37.5 7.4,34.7 10.2,34.7 10.2,32.9 7.4,32.9 7.4,30.3 10.3,30.3 
		10.3,28.4 4.6,28.4 	"/>
	<polygon fill="#006838" points="43.4,37.6 43.4,40.4 46.2,40.4 46.2,37.6 46.2,28.5 43.4,28.5 	"/>
	<polygon fill="#006838" points="37.1,37.6 37.1,40.4 39.9,40.4 39.9,37.6 39.9,34.7 42.8,34.7 42.8,32.9 39.9,32.9 39.9,30.3 
		42.9,30.3 42.9,28.5 37.1,28.5 	"/>
	<polygon fill="#006838" points="46.9,37.6 46.9,40.4 52.7,40.4 52.7,38.6 49.7,38.6 49.7,37.6 49.7,34.7 52.6,34.8 52.6,32.9 
		49.7,32.9 49.7,30.3 52.7,30.3 52.7,28.5 47,28.5 	"/>
	<polygon fill="#006838" points="33.6,37.6 33.6,40.4 36.3,40.4 36.3,37.6 36.4,28.5 33.6,28.5 	"/>
	<polygon fill="#006838" points="26.3,30.3 28.2,30.3 28.2,37.6 28.2,40.4 31,40.4 31,37.6 31,30.3 32.9,30.3 32.9,28.5 26.3,28.5 	
		"/>
	<path fill="#006838" d="M29.1,47.9c-0.1-0.3-0.2-0.5-0.4-0.7c-0.2-0.1-0.4-0.2-0.7-0.2c-0.3,0-0.6,0.1-0.7,0.2
		c-0.2,0.1-0.3,0.4-0.4,0.7c-0.1,0.3-0.2,0.7-0.2,1.2c0,0.5-0.1,1.1-0.1,1.8c0,0.7,0,1.3,0,1.8c0,0.5,0.1,0.9,0.2,1.2
		c0.1,0.3,0.2,0.5,0.4,0.7c0.2,0.1,0.4,0.2,0.7,0.2c0.3,0,0.6-0.1,0.7-0.2c0.2-0.1,0.3-0.4,0.4-0.7c0.1-0.3,0.2-0.7,0.2-1.2
		c0-0.5,0.1-1.1,0.1-1.8c0-0.7,0-1.3,0-1.7C29.2,48.6,29.2,48.2,29.1,47.9"/>
	<path fill="#006838" d="M60.3,43.1L4.6,43l0,8.9l0,6.7l15.7,0.1l0,18.8l5.4,3.7l-4.2,6l2.9,2L20.2,95l0,0.8l4.1,2.8l-3.7,5.3l5.8,4
		l-4.8,6.9l4,2.8l-4.5,6.5l14.3,10.6l1.6-2.1l0.1-74l2.9,0l-0.1,70.1l3.8-5.1l1,0l0-1.4l0-2.9l0.1-60.7l15.5,0l0-6.8h0.1L60.3,43.1
		L60.3,43.1z M23.5,55.9l-2.1,0l0-4.5l-2.4,0l0,4.5l-2.1,0l0-10.2l2.1,0l0,3.9l2.4,0l0-3.9l2.1,0L23.5,55.9z M31.3,52.9
		c-0.1,0.7-0.2,1.2-0.5,1.7c-0.2,0.5-0.6,0.8-1.1,1.1c-0.5,0.2-1.1,0.4-1.8,0.4c-0.8,0-1.4-0.1-1.8-0.4c-0.5-0.3-0.8-0.6-1.1-1.1
		c-0.2-0.5-0.4-1-0.5-1.7c-0.1-0.7-0.1-1.4-0.1-2.2c0-0.8,0-1.5,0.1-2.1c0.1-0.7,0.2-1.2,0.5-1.7c0.2-0.5,0.6-0.8,1.1-1.1
		c0.5-0.3,1.1-0.4,1.9-0.4c0.8,0,1.4,0.1,1.8,0.4c0.5,0.3,0.8,0.6,1.1,1.1c0.2,0.5,0.4,1,0.5,1.7c0.1,0.7,0.1,1.4,0.1,2.1
		C31.4,51.6,31.3,52.3,31.3,52.9 M41.3,55.9l-1.9,0l0-8.2h0l-1.8,8.2l-1.6,0l-1.8-8.2l0,0l0,8.2l-1.9,0l0-10.2l3.1,0l1.4,7.2l0,0
		l1.5-7.2l3.1,0L41.3,55.9z M48.3,55.9l-5.9,0l0-10.2l5.7,0l0,1.7l-3.7,0l0,2.4l3.4,0l0,1.7l-3.4,0l0,2.8l3.8,0L48.3,55.9z"/>
</g>
</svg>
